<?xml version="1.0" standalone="no"?>
<!DOCTYPE svg PUBLIC "-//W3C//DTD SVG 20010904//EN"
 "http://www.w3.org/TR/2001/REC-SVG-20010904/DTD/svg10.dtd">
<svg version="1.0" xmlns="http://www.w3.org/2000/svg"
 width="700.000000pt" height="700.000000pt" viewBox="0 0 700.000000 700.000000"
 preserveAspectRatio="xMidYMid meet">
<metadata>
Created by potrace 1.14, written by Peter Selinger 2001-2017
</metadata>
<g transform="translate(0.000000,700.000000) scale(0.100000,-0.100000)"
fill="#000000" stroke="none">
<path d="M3278 6995 c-1 -1 -41 -5 -88 -9 -47 -4 -101 -9 -120 -12 -139 -19
-252 -40 -360 -66 -69 -16 -135 -31 -146 -34 -32 -6 -260 -81 -297 -98 -18 -8
-63 -26 -101 -40 -83 -32 -271 -123 -381 -184 -73 -41 -314 -195 -353 -227
-10 -7 -66 -52 -127 -100 -415 -331 -787 -810 -990 -1275 -25 -58 -50 -114
-55 -125 -45 -93 -150 -427 -176 -560 -2 -11 -10 -54 -19 -95 -22 -115 -30
-160 -41 -255 -26 -230 -26 -666 1 -826 2 -13 6 -46 9 -74 9 -78 22 -152 51
-285 52 -244 164 -554 288 -800 61 -122 169 -312 187 -330 3 -3 26 -36 51 -75
169 -257 438 -545 719 -770 92 -74 370 -265 386 -265 4 0 15 -6 23 -14 26 -22
298 -158 408 -204 282 -116 583 -199 862 -238 25 -3 57 -8 71 -10 163 -25 682
-25 842 1 13 2 46 7 73 10 71 10 87 13 115 18 14 3 43 8 65 12 325 59 741 212
1039 384 49 28 91 51 93 51 10 0 268 180 353 247 153 119 321 277 450 422 36
41 70 79 76 85 29 30 185 242 240 326 120 184 241 412 315 597 66 163 147 422
175 558 16 79 54 301 59 350 4 33 9 71 11 85 9 46 11 524 4 605 -15 153 -21
210 -25 225 -2 8 -7 35 -10 60 -17 129 -80 384 -136 552 -349 1039 -1171 1861
-2209 2207 -174 58 -415 118 -550 136 -19 3 -46 7 -60 10 -13 2 -54 7 -90 11
-36 3 -78 8 -95 11 -33 5 -531 13 -537 8z m547 -428 c17 -2 48 -7 70 -10 22
-4 60 -9 85 -12 308 -40 723 -185 1030 -359 310 -176 627 -436 825 -676 21
-25 40 -47 44 -50 4 -3 34 -41 67 -85 220 -292 375 -588 488 -931 20 -61 38
-119 40 -130 2 -10 11 -46 19 -79 17 -65 23 -90 37 -175 6 -30 12 -64 14 -75
2 -12 7 -48 11 -80 4 -33 9 -71 12 -85 9 -43 11 -531 3 -600 -5 -36 -11 -94
-15 -130 -4 -36 -8 -67 -10 -70 -2 -3 -6 -26 -10 -50 -20 -142 -75 -347 -142
-530 -325 -890 -1050 -1585 -1953 -1875 -115 -37 -325 -88 -410 -100 -25 -4
-65 -10 -90 -15 -167 -31 -686 -35 -840 -6 -14 3 -46 7 -71 10 -26 3 -53 8
-60 10 -8 3 -32 8 -54 11 -194 28 -504 131 -750 249 -577 278 -1033 706 -1358
1276 -113 200 -244 526 -292 730 -2 8 -11 47 -20 85 -15 64 -26 121 -41 215
-3 19 -7 46 -9 60 -13 77 -20 221 -20 420 0 231 4 298 31 470 4 25 8 52 9 60
5 34 17 91 40 187 151 638 540 1254 1047 1659 40 33 78 64 85 70 31 30 309
208 399 256 258 139 621 270 869 313 264 46 365 54 640 50 138 -2 264 -6 280
-8z"/>
<path d="M2390 5299 c-14 -5 -34 -23 -44 -40 -17 -29 -18 -103 -18 -1637 0
-1098 3 -1616 11 -1634 24 -61 -7 -60 869 -55 764 4 801 5 887 25 261 60 438
170 593 368 17 23 32 45 32 49 0 4 8 19 19 33 28 40 70 145 92 231 46 176 45
378 -2 535 -55 186 -198 374 -369 487 l-71 47 35 21 c129 80 233 194 294 321
53 112 74 201 77 336 13 514 -293 848 -835 913 -102 12 -1538 12 -1570 0z
m1542 -407 c108 -29 179 -65 241 -122 152 -139 188 -403 84 -614 -73 -147
-214 -238 -412 -265 -38 -5 -289 -10 -557 -10 l-487 -2 0 514 c-1 283 2 517 5
520 3 3 240 4 527 2 494 -2 526 -3 599 -23z m-12 -1416 c279 -60 461 -282 461
-564 0 -98 -7 -142 -36 -218 -65 -173 -206 -296 -400 -350 -52 -15 -133 -18
-603 -20 l-542 -3 0 583 c1 321 3 585 5 587 2 2 237 3 522 2 433 -1 530 -4
593 -17z"/>
</g>
</svg>
