<svg width="1161" height="1524" viewBox="0 0 1161 1524" fill="none" xmlns="http://www.w3.org/2000/svg">
<path fill-rule="evenodd" clip-rule="evenodd" d="M1136.04 843.491C1121.85 844.885 1107.66 846.276 1093.46 847.67C1025.5 852.865 957.558 863.712 890.111 870.223C888.432 867.489 885.145 867.94 883.149 869.839C876.419 869.25 868.876 864.104 862.78 869.457C862.582 869.429 862.384 869.396 862.184 869.377C851.329 848.537 843.826 826.309 836.544 804.052C831.896 790.368 825.643 777.121 814.087 767.933C794.365 754.239 749.177 726.47 726.019 727.637C725.635 723.49 723.702 719.215 720.529 716.453C727.523 704.525 699.555 696.742 697.583 698.124C698.847 658.272 680.106 623.662 638.782 615.726C601.761 608.01 549.105 606.713 529.195 645.414C527.006 645.167 504.634 645.051 502.469 645.293C499.103 641.029 462.143 681.433 477.291 695.499C341.859 755.427 264.851 748.276 227.366 916.75C222.298 932.577 221.929 949.896 216.578 965.369C197.539 1009.84 182.097 1057.19 178.254 1105.58C168.972 1107.95 167.905 1124.32 178.656 1126.69C182.763 1127.6 186.197 1128.83 189.192 1131.18C186.851 1170.83 196.438 1261.41 202.479 1261.13C214.796 1300.34 269.737 1311.41 308.633 1297.63C301.928 1310.25 308.633 1318.18 308.633 1324.92C448.592 1330.22 601.623 1327.17 741.544 1334.43C759.442 1334.18 778.267 1338.83 795.921 1336.15C806.687 1333.57 806.705 1316.64 795.784 1314.55L843.501 1304.18C842.435 1303.78 863.171 1289.98 878.842 1264.2C893.43 1235.36 883.502 1200.55 890.111 1169.18C941.736 1164.95 994.214 1163.15 1045.27 1154.4C1052.23 1175.24 1082.37 1150.32 1091.95 1140.3C1091.94 1140.28 1091.93 1140.27 1091.92 1140.25C1096.55 1138.98 1100.27 1134.63 1100.39 1129.49C1103.64 1124.84 1104.33 1118.29 1101.21 1113.8C1115.5 1031.32 1137.28 947.107 1145.16 863.851C1147.94 863.234 1150.56 862.014 1152.79 860.133L1152.61 859.953C1156.37 855.753 1157.1 848.505 1150.83 844.937C1145.76 842.056 1141.53 842.95 1136.04 843.491Z" fill="#FFDBB4"/>
<path fill-rule="evenodd" clip-rule="evenodd" d="M596.303 1152.2L607.235 1159.15L696.68 1187.98L751.341 1194.94L796.064 1187.98V1264.53L805.009 1336.11C801.033 1343.4 763.268 1343.4 691.711 1336.11C646.096 1331.46 479.384 1329.21 441.427 1328.22L439.276 1328.16C394.673 1326.87 350.613 1326.87 307.096 1328.16V1301.31L431.326 1239.68L542.636 1177.05L596.303 1152.2ZM532.925 639.157L541.14 645.293L523.204 674.769L610.575 745.462V801.928L638.236 828.098L654.047 801.928L676.326 772.292L692.158 724.251L686.768 692.601L697.609 691.58C697.661 693.743 697.652 695.926 697.583 698.124C699.555 696.741 727.523 704.524 720.529 716.453C723.702 719.215 725.635 723.489 726.019 727.637C749.177 726.47 794.365 754.239 814.086 767.933C825.643 777.121 831.896 790.368 836.544 804.052L837.638 807.39L838.768 810.817L839.907 814.241C846.196 833.065 852.987 851.719 862.184 869.377C862.384 869.396 862.582 869.429 862.78 869.456C868.876 864.104 876.419 869.25 883.149 869.839C885.099 867.984 888.28 867.511 889.992 870.037L890.111 870.223L806.26 886.746L750.942 1080.84L702.768 1041.73L676.911 1045.58L608.625 1070.21L529.205 1090.85L347.898 1140.85H324.81L190.458 1108.39L178.35 1104.4C182.349 1056.42 197.694 1009.48 216.578 965.369C221.929 949.895 222.298 932.577 227.366 916.75C264.851 748.276 341.859 755.427 477.291 695.499C462.143 681.433 499.103 641.029 502.469 645.293L502.681 645.275L503.14 645.25L503.731 645.229C509.014 645.076 527.231 645.192 529.195 645.414C530.334 643.199 531.58 641.116 532.925 639.157Z" fill="#4DABF7"/>
<path fill-rule="evenodd" clip-rule="evenodd" d="M1149.44 849.384L1146.94 863.307C1146.35 863.501 1145.75 863.666 1145.13 863.801C1144.35 872.101 1143.43 880.41 1142.39 888.726L1126.9 975.056C1124.23 990.329 1121.69 1005.63 1119.18 1020.95L1115.84 1037.39L1113.78 1047.61C1109.32 1069.75 1104.99 1091.81 1101.18 1113.75C1101.76 1114.58 1102.2 1115.48 1102.53 1116.42L1102.23 1117.65L1102.03 1118.48L1101.82 1119.29C1098.82 1130.83 1093.61 1142.01 1081.31 1145.4C1072.03 1147.96 1061.85 1148.19 1052.27 1149.2L1051.21 1149.32L883.591 1168.17C863.337 1170.45 843.093 1172.8 822.851 1175.17L805.303 1177.23C780.844 1180.06 756.245 1182.29 732.147 1187.42C731.261 1187.61 730.528 1187.96 729.93 1188.43C734.782 1170.05 739.428 1151.7 743.638 1133.14C748.376 1112.25 752.873 1091.32 757.942 1070.51C768.153 1028.58 779.599 986.918 792.129 945.619C794.758 936.951 797.449 928.3 800.198 919.67L802.127 913.637L803.612 908.829C805.91 901.499 808.753 893.965 815.49 889.922C823.375 885.19 834.127 884.405 843.069 882.768L849.125 881.631C858.185 879.94 867.257 878.313 876.34 876.751C919.826 869.269 963.559 863.267 1007.45 858.759C1053.13 854.067 1098.96 851.018 1144.85 849.528L1149.44 849.384ZM733.403 1137.23L733.83 1137.26L727.569 1187.33C726.568 1186.63 725.297 1186.2 723.746 1186.2C703.209 1186.26 683.522 1179.7 664.48 1172.48L661.58 1171.37L653.495 1168.27C645.278 1165.12 637.016 1162.04 628.6 1159.48L625.198 1158.45L623.469 1157.94C617.097 1156.08 610.394 1154.39 603.766 1153.97L602.862 1153.92L604.792 1152.91C605.075 1152.76 605.322 1152.59 605.542 1152.41C609.19 1152.69 612.846 1152.61 616.694 1151.92C623.931 1150.61 630.968 1148.1 637.43 1144.59L640.316 1143.03L641.498 1142.4L642.278 1141.99L643.054 1141.6C648.604 1138.83 653.911 1137.1 660.918 1138.57C668.873 1140.25 675.844 1144.54 683.015 1148.16L684.288 1148.8L685.143 1149.21L686.016 1149.62L686.899 1150.02C696.596 1154.39 712.028 1159.1 715.747 1145.91C717.24 1140.61 716.071 1135.65 713.479 1131.3C718.309 1130.88 726.937 1136.58 733.403 1137.23ZM974.784 972.274L974.9 972.874C976.272 980.258 972.833 987.322 967.629 992.471C963.361 996.694 955.807 999.041 953.667 1005.12C952.449 1008.57 953.745 1011.85 956.247 1014.14L955.671 1014.42L955.107 1014.71L954.557 1015L954.021 1015.29L953.498 1015.59C944.997 1020.47 938.074 1028.42 945.741 1038.02C954.439 1048.9 972.614 1049.25 985.418 1048.4L986.281 1048.34C998.697 1047.41 1013.41 1043.24 1020.14 1031.77C1023.23 1026.51 1022.89 1020.15 1018.58 1015.65C1015.98 1012.93 1011.35 1010.14 1007.1 1009.81C1007.29 1007.42 1007.01 1005.1 1006.16 1003.15C1004.34 998.934 999.498 996.094 994.825 995.991C995.203 987.035 988.031 978.194 982.751 971.033L982.212 970.299L981.688 969.576C979.265 966.204 974.081 968.094 974.784 972.274ZM981.869 981.807L986.68 999.835L986.598 999.983C984.903 1003.2 989.346 1006.86 991.981 1004.15L992.246 1003.87C995.373 1000.63 1000.17 1004.98 1000.23 1008.42C1000.32 1013.26 997.168 1017 993.415 1019.47L993.152 1019.64L992.46 1020.07C989.38 1022.11 991.712 1026.37 995.098 1025.85C999.288 1025.21 1002.72 1021.88 1004.84 1017.73C1007.1 1018.38 1009.67 1018.3 1012.06 1019.63C1018.06 1022.99 1014.61 1028.87 1010.7 1032.42L1010.54 1032.56L1010.22 1032.84C1003.05 1038.96 993.285 1041.08 984.081 1041.54L983.551 1041.56C974.253 1041.96 962.141 1042.09 954.172 1036.62C949.213 1033.22 947.777 1028.39 951.974 1023.82C954.347 1021.24 956.743 1018.63 959.21 1016.11C962.902 1017.87 966.199 1017.16 969.975 1015.49C970.459 1015.27 970.191 1014.53 969.717 1014.53C967.633 1014.53 959.99 1010.66 959.618 1008.19C959.275 1005.9 963.503 1003.98 965.559 1002.87L965.857 1002.71L966.116 1002.56C968.267 1001.25 970.291 999.737 972.142 998.033C976.838 993.709 980.249 988.285 981.739 982.348L981.869 981.807Z" fill="#EDF7FE"/>
<path fill-rule="evenodd" clip-rule="evenodd" d="M531.775 636.426C535.992 625.825 550.246 629.946 548.657 641.082C547.706 647.753 544.054 654.798 540.773 660.645C538.101 665.403 535.054 670.048 530.923 673.615C538.277 680.478 545.911 687.091 553.739 693.37C562.28 700.221 571.261 706.536 580.544 712.339C588.685 717.429 597.193 721.939 604.866 727.746C612.001 733.145 618.501 739.639 621.808 748.116C625.332 757.143 623.801 766.465 621.206 775.486L620.908 776.506C618.257 785.444 613.669 796.217 620.031 804.637C623.27 808.924 627.979 811.96 632.045 815.387C635.659 818.433 639.051 821.745 642.161 825.303C648.944 833.059 654.461 841.787 657.942 851.511L658.254 852.395C661.238 861.003 663.419 871.549 659.386 880.001C658.23 882.424 654.499 881.636 653.851 879.277C652.386 873.933 652.462 868.336 651.234 862.916C649.956 857.279 647.829 851.929 645.051 846.867C639.677 837.074 632.398 828.709 623.799 821.637L621.224 819.543C614.516 814.036 608.352 808.193 606.99 799.079C605.533 789.328 609.439 780.038 611.951 770.809C613.701 764.377 614.272 758.211 612.381 752.399C610.07 756.171 606.918 759.752 604.424 762.946C599.458 769.31 594.445 775.634 589.445 781.971C584.319 788.469 579.319 795.069 574.557 801.84C572.428 804.869 570.321 807.916 568.221 810.966C566.641 813.258 564.439 815.549 562.718 817.887C563.136 819.138 563.104 820.579 562.346 821.603C553.218 833.94 540.231 808.198 536.844 801.695C529.947 788.45 524.814 774.379 517.894 761.137C510.723 747.41 502.558 734.049 493.457 721.517C487.952 713.937 481.783 706.817 476.747 698.996C464.883 709.757 449.272 716.97 434.933 723.511C419.178 730.697 402.811 736.568 386.658 742.802L381.886 744.656C354.054 755.521 325.542 767.458 302.408 786.757C275.223 809.436 259.141 841.045 247.168 873.778C233.386 911.46 221.983 950.16 211.354 988.834C205.915 1008.62 200.754 1028.5 195.902 1048.44C191.627 1066.01 188.083 1083.75 183.133 1101.14C193.171 1100.79 204.619 1104.67 213.189 1105.79C252.246 1110.91 290.777 1119.06 327.651 1133.17C332.206 1134.92 333.524 1139.47 332.532 1143.16C335.159 1142.41 337.783 1141.66 340.41 1140.93C337.532 1136.51 338.906 1128.63 339.132 1123.74L339.146 1123.4C339.379 1116.89 340.085 1110.37 340.543 1103.87C341.416 1091.47 342.552 1079.16 344.062 1066.84L344.447 1063.76C346.159 1050.35 347.424 1036.86 349.291 1023.48L349.512 1021.94C348.616 1018.52 347.574 1015.14 346.48 1011.77C343.564 1002.8 339.448 994.351 335.842 985.661C335.416 984.638 336.873 984.051 337.554 984.664C343.662 990.161 348.514 997.133 352.412 1004.43C352.479 1004.08 352.539 1003.74 352.61 1003.39L353.054 1001.2C354.151 995.863 355.485 990.244 358.76 985.913C359.109 985.452 359.799 985.356 360.129 985.913C363.263 991.218 363.614 997.938 364.096 1003.98C364.642 1010.8 364.711 1017.72 364.614 1024.57C364.426 1037.95 363.483 1051.38 362.732 1064.74C361.995 1077.87 360.547 1090.83 358.682 1103.83L358.327 1106.27C357.415 1112.46 356.669 1118.73 355.466 1124.87L355.126 1126.55C354.483 1129.59 354.087 1133.89 352.807 1137.46C385.741 1128.27 418.726 1119.29 451.773 1110.47C475.658 1104.1 499.567 1097.81 523.467 1091.49C524.728 1089.22 526.299 1087.1 528.258 1085.2C534.715 1078.94 543.272 1076.15 551.121 1080.97C551.759 1081.36 551.812 1082.36 551.121 1082.74C549.617 1083.56 548.11 1084.41 546.631 1085.28L560.982 1081.4C571.708 1078.49 582.563 1074.85 593.542 1072.83C613.763 1062.85 635.512 1055.62 656.814 1048.48L659.325 1047.63C670.232 1043.91 681.513 1039.75 692.782 1037.68C701.032 1036.17 710.716 1038 714.034 1046.45C718.234 1049.22 722.185 1052.47 725.998 1055.67C728.755 1057.99 731.398 1060.44 734.085 1062.84L734.581 1063.27C736.778 1065.18 738.518 1066.46 739.057 1069.49C739.336 1071.06 738.34 1073.18 736.407 1072.97C730.493 1072.34 725.683 1065.48 721.672 1061.39C718.573 1058.22 715.45 1054.95 712.621 1051.47C710.973 1052.37 708.713 1052.21 707.663 1050.22C702.221 1039.91 687.312 1047.05 679.063 1049.5L667.247 1052.99C661.339 1054.75 655.433 1056.51 649.538 1058.3C633.334 1063.22 617.21 1068.73 600.859 1073.25C602.322 1074.86 602.121 1077.72 599.342 1078.81C586.543 1083.83 572.502 1086.43 559.206 1089.87C550.811 1092.05 542.421 1094.24 534.034 1096.45C532.596 1098.78 531.561 1101.41 531.126 1104.48C529.525 1115.77 532.612 1128.79 535.619 1139.7L536.072 1141.33C538.544 1150.1 542.18 1160.86 549.748 1166.4C551.596 1167.75 553.948 1168.69 556.319 1168.9C571.135 1161.28 585.949 1153.65 600.772 1146.04C603.518 1144.63 606.055 1146.54 606.671 1148.81C611.898 1147.95 617.113 1146.6 621.862 1144.98C629.843 1142.27 636.074 1137.1 643.556 1133.53C658.032 1126.61 672.815 1135.11 685.776 1141.57L688.764 1143.03C694.576 1145.85 706.668 1151.27 709.457 1143.56C712.154 1136.09 703.626 1128.12 698.118 1124.76C691.553 1120.75 683.908 1118.61 676.488 1116.82C672.252 1115.8 667.963 1114.97 663.649 1114.37C658.755 1113.68 653.701 1113.78 648.989 1112.19C646.647 1111.4 646.288 1107.68 648.989 1107.07C656.242 1105.42 664.899 1107.22 672.468 1109.06L676.424 1110.04C684.05 1111.91 691.749 1114.26 698.695 1117.99C703.745 1120.71 709.076 1124.83 712.559 1129.88C715.583 1127.07 719.347 1127.17 723.268 1128.21L725.396 1128.8C728.91 1129.78 731.758 1130.45 735.178 1129.77C735.635 1127.28 736.098 1124.79 736.594 1122.3C741.467 1097.83 746.81 1073.46 752.707 1049.21C762.878 1007.39 774.647 966.03 787.914 925.092L789.246 921C792.306 911.636 794.769 901.435 799.702 892.832C804.369 884.698 811.844 880.013 820.726 877.532C830.806 874.716 841.397 873.243 851.679 871.341C853.973 870.918 856.273 870.515 858.568 870.099C856.628 866.595 855.18 862.617 853.876 859.565L853.647 859.036C850.845 852.645 848.327 846.139 845.896 839.598L844.078 834.681C839.689 822.84 835.158 811.194 828.987 800.119C822.491 788.464 813.874 778.935 803.131 771.049C781.229 754.968 754.83 746.765 733.586 729.579C732.716 728.876 733.832 727.672 734.715 728.117C749.059 735.327 764.544 740.229 779.464 746.098L782.407 747.259C794.199 751.936 806.175 757.026 816.382 764.597C827.761 773.039 836.724 783.523 843.46 795.99C850.099 808.28 854.346 822.035 859.03 835.162L860.282 838.66C862.172 843.904 864.123 849.133 866.359 854.237C868.134 858.289 871.447 862.915 872.952 867.544C877.072 866.829 881.19 866.112 885.314 865.423C974.627 850.507 1064.94 841.743 1155.45 839.179C1158.99 839.079 1160.82 842.459 1160.3 845.549C1151.61 896.926 1143.9 948.48 1135.43 999.896C1131.73 1022.34 1127.96 1044.76 1124.1 1067.17C1122.14 1078.53 1119.88 1089.84 1118.03 1101.21C1116.54 1110.39 1115.45 1119.65 1112.89 1128.62C1110.58 1136.66 1107.05 1144.42 1101.25 1150.56C1095 1157.17 1086.27 1160.37 1077.49 1161.89C1055.18 1165.73 1032.31 1167.29 1009.82 1169.85L890.118 1183.48C891.867 1199.38 891.998 1215.04 891.195 1231.13L890.738 1239.91C890.364 1246.98 889.917 1254.05 888.902 1261.04C887.63 1269.81 883.619 1277.24 877.711 1283.79C872.285 1289.81 865.694 1294.94 859.283 1299.86C852.628 1304.97 845.752 1309.9 837.927 1313.06L836.912 1313.46C830.048 1316.14 817.171 1320.29 807.788 1318.78C809.015 1324.92 811.388 1331.53 809.284 1337.61C808.308 1340.44 804.616 1341.85 802.354 1339.44C797.873 1334.68 797.523 1328.39 796.462 1322.18C795.357 1315.71 794.405 1309.22 793.56 1302.72C791.924 1290.14 790.651 1277.45 790.262 1264.77C789.862 1251.74 790.016 1238.7 790.718 1225.69C791.079 1219.01 791.526 1212.33 792.374 1205.69C792.736 1202.86 793.105 1200.02 793.528 1197.2C793.682 1196.17 793.853 1195.15 794.037 1194.12L783.292 1195.33C766.818 1197.17 750.335 1198.84 733.744 1199.09C731.78 1199.12 730.268 1198.23 729.28 1196.93C728.228 1198.64 726.395 1199.87 723.77 1199.86C700.601 1199.77 679.025 1192.19 657.951 1183.26C647.329 1178.76 636.872 1173.88 626.234 1169.42C616.305 1165.25 605.689 1162.28 595.999 1157.58L570.537 1170.94C570.35 1171.6 570.111 1172.22 569.857 1172.74C568.199 1176.13 564.93 1177.96 561.592 1179.34C558.388 1180.67 555.069 1181.09 551.836 1180.75C532.526 1190.87 513.211 1200.99 493.883 1211.08L474.55 1221.16C436.033 1241.22 397.668 1261.61 358.908 1281.2L356.055 1282.63C342.667 1289.35 328.292 1296.15 313.434 1301.23C313.17 1305 313.337 1308.65 313.652 1312.64L313.728 1313.5C314.171 1318.21 315.121 1324.1 311.347 1327.45C309.385 1329.19 305.878 1329.2 304.544 1326.57C302.122 1321.81 304.296 1314.3 305.063 1309.13C305.336 1307.29 305.668 1305.4 306.159 1303.56C289.126 1308.63 271.578 1311.09 254.245 1308.25C237.37 1305.47 224.3 1294.84 213.763 1281.83C202.643 1268.11 194.741 1252.11 190.502 1234.96C185.677 1215.45 185.362 1195.3 185.475 1175.31C185.595 1154.03 186.382 1132.64 188.97 1111.5C186.135 1110.83 182.99 1110.26 180.125 1110.46C178.706 1112.73 175.953 1113.68 173.465 1113.39C168.056 1119.36 181.777 1125.45 186.162 1126.98C187.684 1127.51 187.521 1129.99 185.765 1129.91L184.659 1129.86C177.884 1129.5 170.884 1128.34 166.9 1122.04C163.708 1116.99 164.667 1111.01 168.472 1106.9C170.986 1083.13 176.994 1059.98 182.587 1036.79C188.075 1014.03 194.178 991.413 200.647 968.913L203.547 958.842C213.732 923.562 224.378 887.997 238.428 854.119C245.443 837.203 253.525 820.598 264.48 805.848C274.692 792.098 286.748 780.333 300.606 770.284C326.441 751.549 356.755 740.229 386.541 729.444L387.874 728.961C403.309 723.376 418.707 717.724 433.966 711.673C447.461 706.322 460.39 699.537 473.822 694.105C473.386 693.313 472.964 692.511 472.559 691.701L472.311 691.91C472.268 691.944 472.225 691.977 472.179 692.007C470.829 692.944 468.84 692.484 467.727 691.433C464.584 688.466 465.648 685.173 467.746 682.097L468.019 681.705C470.585 678.109 472.874 674.308 475.242 670.582L476.725 668.252C480.701 662.027 484.878 655.76 490.179 650.616C492.633 648.232 495.321 646.448 498.168 645.119C497.925 644.604 500.059 643.551 500.665 644.081C509.686 640.779 520.064 641.471 529.899 642.381M884.326 1184.13L871.784 1185.56C857.985 1187.13 844.181 1188.65 830.376 1190.15L800.389 1193.41C800.313 1195.12 800.105 1196.79 800.067 1198.09C799.871 1204.74 799.725 1211.4 799.587 1218.06C799.31 1231.41 799.614 1244.77 800.493 1258.1C801.344 1271.01 802.466 1283.92 804.208 1296.74L804.565 1299.31L804.772 1300.65C806.194 1300.79 807.592 1301.47 808.753 1302.86C811.29 1305.89 820.474 1302.94 824.06 1301.66C829.959 1299.56 835.513 1296.02 840.639 1292.46C845.644 1288.99 850.151 1284.94 854.482 1280.67L858.025 1277.17C861.55 1273.66 865.079 1269.93 867.239 1265.52C870.168 1259.54 870.546 1252.21 871.405 1245.7C872.462 1237.69 873.721 1229.69 875.052 1221.72M520.228 1100.09L518.927 1100.43C471.669 1112.99 424.482 1125.92 377.079 1137.93C353.62 1143.87 330.05 1149.38 306.563 1155.21L302.76 1156.16C284.231 1160.85 265.48 1166.48 251.291 1179.93C250.767 1180.42 250.007 1179.66 250.5 1179.14C265.792 1162.85 287.541 1155.96 308.424 1149.98C312.284 1148.88 316.149 1147.8 320.01 1146.7C291.61 1136.57 262.762 1127.76 233.248 1121.48C225.648 1119.86 217.959 1118.67 210.366 1117.05C205.069 1115.91 199.897 1114.28 194.657 1112.92L190.535 1111.88L190.481 1124.91C190.412 1143.37 190.445 1161.81 191.386 1180.26L191.564 1183.68C192.663 1204.22 194.377 1225.18 201.662 1244.54C207.583 1260.28 217.019 1275.1 229.36 1286.56C235.604 1292.36 242.317 1296.87 250.616 1299.1C258.321 1301.17 266.394 1301.41 274.315 1300.86C312.308 1298.21 346.129 1277.57 379.132 1260.47C433.114 1232.52 487.103 1204.57 541.14 1176.72C539.679 1175.72 538.303 1174.57 537.052 1173.28C529.806 1165.79 525.984 1155.54 523.473 1145.62C520.801 1135.06 519.203 1123.73 519.017 1112.83M588.985 1187.51C589.462 1187.26 590.015 1187.58 590.037 1188.12C590.203 1192.24 587.923 1196.32 586.219 1200.04L586.038 1200.43C583.968 1205.04 581.701 1209.58 579.357 1214.06C574.671 1223 569.801 1231.84 564.719 1240.56C554.498 1258.09 543.14 1274.89 529.716 1290.16C526.683 1293.61 521.696 1289.19 523.642 1285.48C533.024 1267.57 543.961 1250.67 555.219 1233.91C560.855 1225.52 566.488 1217.12 572.179 1208.77C574.554 1205.28 576.959 1201.81 579.428 1198.39L580.918 1196.34M1149.46 849.434C1102.04 850.866 1054.67 853.96 1007.48 858.808C963.583 863.317 919.851 869.318 876.364 876.8C867.281 878.362 858.209 879.989 849.149 881.68L843.715 882.702C834.653 884.42 823.582 885.129 815.514 889.971C807.008 895.076 804.709 905.745 801.879 914.543C798.552 924.89 795.309 935.267 792.153 945.668C779.623 986.967 768.177 1028.62 757.966 1070.56C752.898 1091.37 748.401 1112.3 743.662 1133.19C739.452 1151.75 734.807 1170.1 729.954 1188.48C730.552 1188.01 731.286 1187.66 732.171 1187.47C756.27 1182.34 780.869 1180.11 805.327 1177.28L807.694 1177C832.996 1174.02 858.298 1171.07 883.615 1168.22L1051.23 1149.37C1061.12 1148.26 1071.71 1148.1 1081.33 1145.45C1097.69 1140.94 1101.52 1122.65 1104.27 1108.08L1104.35 1107.64C1112.62 1063.63 1119.21 1019.23 1126.92 975.105M733.855 1137.31C727.347 1136.88 718.44 1130.92 713.503 1131.35C716.095 1135.7 717.265 1140.66 715.771 1145.96C711.614 1160.7 692.813 1153.08 683.757 1148.57C676.332 1144.88 669.163 1140.35 660.943 1138.62C651.631 1136.67 645.322 1140.37 637.454 1144.64C630.993 1148.15 623.955 1150.66 616.718 1151.97C612.87 1152.66 609.215 1152.73 605.566 1152.46C605.347 1152.64 605.099 1152.81 604.817 1152.96L602.887 1153.97C611.614 1154.37 620.503 1157.06 628.624 1159.53C637.04 1162.08 645.302 1165.16 653.52 1168.31L661.604 1171.42C681.546 1179.06 702.189 1186.32 723.77 1186.25C725.322 1186.25 726.593 1186.68 727.594 1187.38M697.445 1091.11C703.874 1090.33 709.808 1091.17 714.945 1095.35C721.141 1100.4 725.303 1108.78 734.21 1109.32C736.807 1109.48 737.41 1113.14 734.829 1113.9C728.199 1115.86 722.831 1112.28 718.314 1107.62L715.277 1104.44C710.814 1099.82 706.697 1096.25 699.122 1096.52C691.011 1096.82 682.885 1098.69 674.826 1099.65C665.697 1100.73 656.569 1101.65 647.411 1102.44C646.986 1102.48 646.913 1101.81 647.312 1101.71L657.569 1099.16M691.239 1064.82L692.299 1064.71C701.635 1063.81 710.173 1063.77 718.511 1068.8L720.11 1069.76C727.627 1074.33 735.809 1079.72 740.51 1087.12C741.28 1088.33 740.009 1089.75 738.722 1089.45C729.687 1087.28 723.081 1080.65 715.484 1075.68C706.956 1070.11 698.148 1071.03 688.425 1071.9C679.012 1072.74 669.603 1073.89 660.282 1075.46C651.523 1076.93 642.737 1079.26 633.889 1080L633.891 1079.98C632.881 1079.98 632.304 1078.46 633.335 1077.94C642.313 1073.46 652.712 1071.34 662.478 1069.29M974.845 972.521C973.943 968.203 979.252 966.201 981.713 969.626L982.236 970.348C987.552 977.633 995.241 986.775 994.849 996.041C999.522 996.143 1004.37 998.983 1006.19 1003.2C1007.03 1005.15 1007.31 1007.47 1007.13 1009.86C1011.38 1010.19 1016.01 1012.98 1018.61 1015.69C1022.91 1020.2 1023.25 1026.56 1020.16 1031.82C1013.43 1043.29 998.722 1047.46 986.305 1048.39L985.863 1048.42C973.038 1049.31 954.559 1049.07 945.766 1038.06C937.283 1027.45 946.658 1018.85 956.271 1014.19C953.769 1011.9 952.473 1008.62 953.691 1005.17C955.831 999.091 963.385 996.744 967.654 992.521C972.857 987.371 976.296 980.308 974.925 972.924M981.894 981.857C980.479 988.004 977.005 993.627 972.166 998.083C970.315 999.787 968.291 1001.3 966.14 1002.61L965.882 1002.76C963.973 1003.83 959.281 1005.84 959.642 1008.24C960.014 1010.71 967.658 1014.58 969.741 1014.58C970.215 1014.58 970.483 1015.32 969.999 1015.54C966.224 1017.21 962.926 1017.92 959.234 1016.16C956.767 1018.68 954.371 1021.28 951.998 1023.87C947.801 1028.44 949.237 1033.27 954.196 1036.67C962.165 1042.14 974.278 1042.01 983.575 1041.61C992.933 1041.21 1002.94 1039.12 1010.25 1032.89L1010.56 1032.61C1014.54 1029.08 1018.17 1023.09 1012.08 1019.68C1009.7 1018.35 1007.13 1018.43 1004.86 1017.78C1002.75 1021.93 999.313 1025.26 995.123 1025.9C991.736 1026.42 989.404 1022.16 992.485 1020.12L993.177 1019.69C997.045 1017.22 1000.35 1013.42 1000.26 1008.47C1000.2 1005.03 995.398 1000.68 992.27 1003.91L992.127 1004.07C989.51 1007.02 984.901 1003.3 986.622 1000.03L986.705 999.884M371.559 810.887C371.547 810.148 372.585 809.872 372.948 810.511C379.022 821.201 382.198 834.305 385.434 846.082C388.823 858.419 391.559 870.882 394.017 883.435C398.995 908.856 401.647 934.131 401.827 960.04C401.852 963.739 395.827 964.723 395.238 960.933C391.325 935.731 387.576 910.503 383.634 885.307C381.65 872.635 379.342 860.012 377.132 847.377M431.694 829.506C431.247 828.032 433.391 827.539 433.94 828.887C446.13 858.819 450.259 892.741 442.432 924.319C441.235 929.15 434.162 927.057 435.065 922.287M588.936 802.91C588.875 801.806 590.307 801.632 590.847 802.392C596.623 810.533 599.019 821.435 609.153 825.642C614.213 827.743 619.906 827.377 624.377 830.925C627.365 833.298 629.657 837.044 627.414 840.638C626.69 841.799 624.665 842.381 623.683 841.119C622.25 839.281 621.492 837.08 619.545 835.702C616.799 833.758 613.096 833.638 609.947 832.725C605.874 831.544 602.285 829.477 599.345 826.406M685.436 667.128C686.032 666.824 686.603 667.018 686.984 667.533C687.527 668.267 687.461 668.981 686.795 669.484C687.684 671.302 688.735 675.857 688.885 676.52C689.493 679.208 690.14 681.881 690.817 684.551C692.182 689.936 693.379 695.363 694.745 700.75C696.194 706.46 697.921 712.11 699.842 717.678C699.966 718.039 700.102 718.407 700.245 718.78L700.464 719.344L700.518 719.259C700.908 718.641 701.721 719.073 701.625 719.725C701.535 720.32 701.415 720.911 701.314 721.506L701.515 722.038C702.772 725.421 703.632 728.984 701.327 731.97C700.464 733.086 699.515 733.747 698.332 733.944C696.436 740.197 694.057 746.334 691.51 752.227L690.763 753.948C687.016 762.548 683.02 771.034 677.054 778.355C670.541 786.348 661.581 791.805 655.907 800.564C653.268 804.638 651.431 808.921 649.94 813.522L649.38 815.268C648.321 818.523 647.101 821.677 644.049 823.586C643.075 824.194 641.616 824 640.831 823.17C634.573 816.548 641.124 804.183 644.898 797.772C650.143 788.857 657.735 783.153 665.337 776.427C673.531 769.177 678.758 759.478 683.813 749.924C686.91 744.07 689.9 738.091 693.047 732.211C689.759 729.304 688.706 723.529 687.592 719.515L687.49 719.155C685.649 712.727 684.186 706.132 683.262 699.508C682.372 693.139 682.001 686.862 682.236 680.457L682.304 678.826M697.663 697.44C696.936 696.444 698.139 695.316 699.136 695.524C705.196 696.777 711.122 700.447 716.561 703.414L717.142 703.729C721.484 706.071 725.853 708.941 728.133 713.491C730.613 718.436 730.408 724.132 730.07 729.506L730.038 730.009C729.624 736.454 729.557 743.15 728.193 749.479C727.496 752.718 724.563 753.631 722.056 752.865C719.072 762.288 710.691 769.231 704.569 776.668C696.763 786.148 698.232 798.947 699.048 810.365C699.378 814.987 693.63 816.301 690.669 813.835L683.846 808.166C682.71 807.22 681.575 806.272 680.444 805.32C679.474 804.504 678.514 803.682 677.561 802.85L676.138 801.593C675.507 801.029 672.723 797.918 671.909 797.789C669.938 797.475 665.254 802.673 663.651 804.303L663.448 804.506C660.431 807.466 657.705 810.65 655.165 814.027C654.698 814.647 653.785 814.132 654.119 813.416C656.394 808.54 659.04 803.879 662.181 799.516L662.816 798.648C664.906 795.83 667.711 790.856 671.401 790.024C675.905 789.008 680.403 793.527 683.681 796.035L683.888 796.192C685.448 797.362 686.989 798.553 688.527 799.752C688.366 791.251 689.44 782.662 693.828 775.336C696.921 770.17 701.557 766.344 705.523 761.904C709.939 756.96 712.244 750.884 716.242 745.735C716.756 745.073 717.466 744.716 718.234 744.603C718.388 740.464 718.997 736.283 719.468 732.189L719.605 730.963C720.081 726.515 721.206 721.081 719.028 716.914C716.971 712.979 712.252 710.201 708.757 707.531L705.904 705.317M500.968 650.4C499.143 651.456 497.438 652.769 495.89 654.41C491.019 659.579 487.537 666.011 484.148 672.198C482.323 675.531 480.564 678.9 478.725 682.224C477.925 683.671 477.102 685.101 476.27 686.53C475.885 687.188 474.742 688.496 474.176 689.302C474.805 690.184 475.456 691.053 476.12 691.912C476.373 692.24 493.846 711.279 499.936 718.731C509.262 730.144 517.599 742.2 524.725 755.104C531.704 767.74 537.017 781.119 543.482 794C546.718 800.449 550.332 806.852 554.938 812.433C555.116 812.651 555.304 812.857 555.486 813.071C557.244 808.321 561.749 803.234 563.961 800.313L564.168 800.037C569.186 793.271 574.485 786.709 579.899 780.258C584.845 774.368 589.916 768.604 595.109 762.936L597.063 760.815C600.681 756.905 605.278 751.055 610.575 748.261C610.008 747.249 609.351 746.248 608.595 745.26C603.632 738.772 596.616 734.064 589.693 729.816L585.204 727.084C568.281 716.768 551.622 705.974 536.93 692.571C529.157 685.479 521.491 678.05 514.958 669.778L512.647 666.853M529.205 645.293C521.28 645.958 512.722 645.8 505.398 648.383C511.909 654.54 518.097 661.187 524.455 667.447C525.021 663.213 526.177 659.031 527.157 654.902" fill="black"/>
<path fill-rule="evenodd" clip-rule="evenodd" d="M705.498 593.413C698.753 596.065 690.783 596.692 683.821 594.432C677.164 592.271 671.119 587.46 667.462 581.411C664.204 576.022 662.843 569.628 664.769 563.254C664.861 562.948 665.159 562.753 665.448 562.677C667.023 564.112 667.996 565.536 668.968 566.954C670.608 569.344 672.251 571.71 674.506 573.754C677.787 576.727 682.208 579.141 686.596 579.938C690.892 580.719 695.289 580.028 699.135 577.972C701.474 576.722 703.366 575.05 705.239 573.371C707.278 571.543 709.285 569.687 712.094 568.655C714.345 567.827 716.71 568.526 718.526 569.91C720.478 571.397 721.882 573.726 721.804 576.16C721.684 579.932 720.033 583.078 717.638 585.674C714.401 589.184 709.823 591.712 705.498 593.413ZM697.49 499.418C704.995 503.981 716.43 514.621 708.356 525.934C698.853 535.908 685.17 524.472 678.428 519.3C672.176 515.291 665.151 525.601 670.952 530.281C719.674 566.364 739.446 500.611 701.286 494.053C697.084 493.33 695.523 498.006 697.49 499.418ZM618.553 436.192C628.781 435.703 637.796 440.298 647.543 442.386C656.551 444.317 665.426 443.157 674.187 440.702C688.405 436.716 694.282 458.488 680.258 462.731C670.046 465.821 659.292 466.035 648.812 464.443C639.503 463.027 631.699 458.494 622.823 455.854C615.206 453.59 606.245 454.531 598.201 455.597L595.078 456.017C590.437 456.643 585.771 457.27 581.176 458.178C577.188 458.966 573.208 460.408 569.138 460.576C568.676 460.595 568.285 459.995 568.576 459.594C573.303 453.102 582.415 447.979 589.663 444.563L590.154 444.332C599.1 440.16 608.592 436.668 618.553 436.192ZM614.805 484.065L614.804 483.841C614.818 477.502 618.509 463.028 627.633 463.028C633.332 463.028 636.793 472.879 637.392 483.033L637.413 483.447C637.677 489.76 635.945 503.56 627.633 503.56C619.232 503.56 614.892 490.49 614.805 484.065V484.065ZM749.128 484.065L749.129 483.841C749.115 477.502 745.424 463.028 736.301 463.028C730.743 463.028 727.315 472.392 726.592 482.272L726.541 483.033C726.182 489.133 727.801 503.56 736.301 503.56C744.701 503.56 749.041 490.49 749.128 484.065V484.065ZM748.988 428.471L749.641 428.486C760.302 428.856 771.269 435.173 774.116 445.786C774.263 446.336 773.584 446.707 773.182 446.329C764.415 438.119 752.625 445.964 743.846 450.076L740.622 451.566C729.304 456.833 716.433 463.025 703.867 459.1C697.899 457.236 694.109 451.102 695.811 444.907C697.326 439.394 703.978 434.762 709.739 436.751L710 436.846C714.681 438.637 720.437 436.823 725.271 435.034L729.243 433.542C735.629 431.118 742.044 428.406 748.988 428.471V428.471Z" fill="black"/>
<path fill-rule="evenodd" clip-rule="evenodd" d="M760.527 360.697C753.508 336.594 754.512 333.987 744.051 310.964C709.365 244.079 477.568 266.474 453.911 333.24C441.077 369.461 444.092 420.472 440.751 451.881C439.729 468.533 438.725 485.187 437.684 501.838C437.325 507.588 436.961 513.339 436.591 519.088C435.87 530.282 435.169 541.475 434.515 552.672C430.157 587.165 448.339 590.673 479.526 589.652C487.771 608.617 501.125 624.449 517.621 637.329C513.639 647.655 528.077 653 535.865 657.128C578.24 679.685 630.29 693.445 677.226 680.761C691.017 677.034 747.969 664.126 765.48 624.169C774.079 604.547 791.56 502.933 768.507 411.527L760.527 360.697Z" fill="#FFDBB4"/>
<path fill-rule="evenodd" clip-rule="evenodd" d="M612.365 203.478C618.919 202.373 626.248 202.799 630.005 208.934C630.818 210.257 631.333 211.591 631.581 212.905C649.49 209.066 668.082 208.651 686.378 211.165C691.832 211.911 693.745 218.841 691.346 222.803C691.098 223.209 690.85 223.605 690.582 223.994C696.314 224.437 702.035 225.383 707.707 226.84C711.743 227.879 715.511 232.862 713.717 236.946C713.558 237.305 713.389 237.664 713.222 238.022C722.135 239.451 730.653 242.788 738.1 248.177C738.992 248.81 739.815 249.633 740.5 250.568C757.149 248.781 774.294 252.062 789.158 259.72C793.323 261.865 795.336 268.048 792.51 271.906C791.627 273.106 790.705 274.25 789.713 275.356C796.178 277.635 801.9 281.321 805.757 287.325C809.952 293.838 811.241 302.224 808.99 309.39C813.69 313.956 816.149 320.951 814.474 327.965C812.947 334.367 808.831 338.431 803.556 340.871C804.627 343.991 803.764 347.536 801.335 349.945C797.606 353.642 793.144 356.478 788.285 358.341C788.275 359.542 787.958 360.78 787.323 361.934C782.941 369.95 773.49 375.273 763.882 376.077C767.114 389.018 769.772 402.122 772.35 415.149C776.932 438.32 780.481 461.718 782.643 485.21L782.905 488.115C786.427 527.866 787.246 569.511 778.766 608.724C773.362 633.691 756.98 654.736 735.125 668.992C712.903 683.493 685.753 690.707 659.039 691.85C645.414 692.428 631.662 691.33 618.315 688.665C611.977 687.398 605.859 685.602 599.84 683.314C593.365 680.847 588.031 677.207 582.556 673.114C579.71 670.987 581.338 665.967 584.708 665.332C587.118 664.87 589.498 664.369 591.897 663.953C594.099 663.564 596.499 665.664 596.042 667.602L600.685 668.742C602.233 669.122 603.779 669.506 605.322 669.901L607.634 670.503C614.208 672.253 620.932 673.727 627.674 674.778C641.398 676.905 655.677 676.952 669.471 675.297C692.664 672.528 716.354 664.643 734.391 650.113C743.237 642.985 750.604 634.542 755.949 624.739C762.741 612.287 764.794 598.419 766.5 584.645C771.428 544.817 769.911 504.931 766.083 465.093C764.179 445.278 761.581 425.501 758.825 405.771C757.407 395.655 755.88 385.521 754.621 375.368C751.814 374.649 749.137 373.458 746.737 371.728C745.111 370.556 744.159 369.193 743.742 367.805C741.319 367.369 738.997 366.101 737.323 363.958L737.108 363.673C732.716 357.612 725.121 354.144 718.089 351.62C713.825 350.088 709.482 348.754 705.159 347.394C700.657 345.966 695.897 343.858 691.167 343.31C685.803 342.705 680.398 344.246 674.984 343.697C670.066 343.187 665.732 341.503 662.193 338.139C660.954 336.966 659.882 335.614 659.029 334.159C642.519 337.523 625.176 333.279 608.021 334.3C596.736 334.981 586.781 341.637 575.377 341.457C572.263 341.41 569.249 340.37 567.057 338.545C556.299 340.502 545.361 344.264 535.247 347.497C525.251 350.693 515.633 354.995 505.756 358.483C505.746 358.493 505.746 358.493 505.746 358.502C504.457 362.482 500.61 364.202 496.514 363.503C483.118 361.225 471.833 353.169 458.794 350.221C455.204 362.69 451.347 374.998 448.71 387.714C446.042 400.543 444.167 413.542 442.928 426.569C441.678 439.644 441.083 452.851 441.054 465.972C441.044 472.666 441.222 479.377 441.46 486.07C441.653 491.678 442.774 498.768 440.649 504.16L440.459 504.618H440.449C440.191 505.404 439.031 505.877 438.376 505.149C434.38 500.723 433.428 493.681 432.318 488.122C430.969 481.373 430.106 474.556 429.413 467.72C428.024 454.003 427.717 440.343 428.45 426.569C429.888 399.456 434.45 370.819 444.187 345.191C441.193 345.455 439.854 341.249 439.656 338.876C439.276 334.107 440.06 329.047 440.909 324.264L441.797 319.313C442.638 314.639 443.529 310.088 445.199 305.542C449.206 294.632 454.966 284.385 462.145 275.073C476.791 256.08 497.091 241.7 520.204 233.41C521.652 232.89 523.02 232.899 524.23 233.296C545.262 222.491 567.871 214.172 590.836 208.253C597.936 206.429 605.125 204.708 612.365 203.478ZM437.702 508.296C447.252 502.587 466.955 501.094 472.28 513.26C472.498 513.751 471.883 514.186 471.427 514.073L470.124 513.759C465.119 512.576 460.793 511.897 455.66 513.856C451.149 515.577 446.766 518.27 443.781 521.976C436.725 530.74 435.96 542.645 436.618 553.275L436.651 553.789C437.266 563.119 439.775 574.482 449.344 579.096C454.193 581.431 459.438 581.26 464.704 581.223C470.703 581.185 476.831 581.809 482.563 583.568C485.766 584.55 487.273 588.597 484.615 590.97C483.733 591.755 482.811 592.492 481.839 593.153C484.744 596.104 487.6 599.091 490.367 602.239C495.057 607.58 500.045 612.741 505.251 617.629C510.288 622.347 515.623 626.913 521.374 630.827C527.423 634.93 534.662 637.813 539.898 642.842C543.309 646.114 542.724 650.679 539.898 653.988C532.882 662.212 520.94 653.567 514.232 648.704L513.422 648.117C506.451 643.088 499.827 637.662 494.184 631.271C488.433 624.748 483.455 617.809 479.776 610.028C477.615 605.453 476.236 601.133 475.493 596.614C463.435 601.606 448.233 600.017 437.425 592.993C423.076 583.671 419.05 566.561 419 550.942L419.001 550.016C419.108 534.835 423.291 516.913 437.702 508.296ZM464.906 530.3L465.348 530.305C470.659 530.415 475.394 532.238 479.905 534.751L480.371 535.013C484.754 537.499 491.041 539.493 493.361 544.145C494.749 546.953 494.65 550.167 492.231 552.492C487.848 556.709 481.234 556.01 476.494 552.719C472.954 550.253 470.623 546.556 467.153 544.059C460.628 539.352 450.335 539.617 443.544 543.692C443.126 543.947 442.721 543.465 442.908 543.087C447.079 534.949 455.345 530.269 464.906 530.3Z" fill="black"/>
<path fill-rule="evenodd" clip-rule="evenodd" d="M648.587 613.926C641.864 611.184 635.866 606.61 631.481 600.766C629.957 598.735 629.561 596.589 629.881 594.627C630.241 592.421 631.546 590.422 633.326 589.08C635.112 587.735 637.345 587.072 639.504 587.41C641.381 587.704 643.248 588.731 644.727 590.862L645.035 591.288C647.642 594.815 651.04 597.708 654.91 599.574C658.641 601.371 662.814 602.211 667.132 601.723C675.356 600.794 681.024 596.346 687.049 590.306C687.796 589.544 688.543 588.757 689.294 587.958C689.768 587.234 690.426 586.768 691.157 586.524C691.968 586.253 692.886 586.268 693.726 586.562C694.537 586.845 695.262 587.381 695.747 588.094C696.209 588.772 696.471 589.61 696.386 590.574C695.835 596.833 692.562 602.419 687.914 606.805C682.752 611.677 675.908 615.047 669.466 616.229C662.368 617.531 655.136 616.598 648.587 613.926ZM672.814 517.367C680.366 521.957 691.872 532.66 683.748 544.039C674.186 554.073 660.418 542.569 653.634 537.366C647.343 533.334 640.275 543.704 646.112 548.413C695.136 584.708 715.031 518.567 676.634 511.97C672.406 511.243 670.836 515.947 672.814 517.367ZM584.963 475.146C585.798 464.79 601.57 462.438 603.139 472.686C604.544 481.866 602.89 490.299 598.755 498.564C594.804 506.46 584.874 502.776 584.123 495.586C583.116 485.948 584.444 481.588 584.963 475.146ZM705.027 470.561C707.226 467.681 710.401 465.715 714.205 466.826C726.09 470.299 722.587 487.172 718.413 495.385C716.145 499.845 708.814 500.976 705.501 497.049C700.101 490.645 697.515 477.856 704.38 471.548C704.566 471.222 704.773 470.893 705.027 470.561ZM598.588 429.83L600.465 429.502C606.273 428.497 613.494 427.532 617.603 432.201C619.782 434.677 620.532 439.279 617.603 441.649C612.451 445.819 606.755 444.203 600.581 444.556C595.493 444.848 590.603 445.69 585.702 447.091C574.95 450.164 566.189 455.774 557.006 461.934C555.801 462.742 554.571 461.201 555.146 460.074C560.447 449.691 570.72 441.162 581.01 435.963C586.502 433.188 592.512 430.886 598.588 429.83ZM694.193 425.179L695.63 425.473C711.267 428.742 731.583 435.271 738.988 450.631C739.271 452.802 738.972 453.268 738.73 453.572L738.649 453.673C738.45 453.933 738.29 454.291 737.349 454.587C737.088 454.524 736.824 454.458 736.557 454.389C733.163 453.499 730.477 452.274 727.877 451.002L725.058 449.613C721.788 448.01 718.488 446.464 714.992 445.324C707.53 442.89 699.854 441.175 692.06 440.259C690.37 440.061 688.744 439.491 687.46 438.514C686.242 437.586 685.311 436.302 684.887 434.595C684.337 432.386 684.495 430.714 685.68 428.721C686.572 427.224 687.847 426.187 689.311 425.591C690.804 424.984 692.503 424.841 694.193 425.179Z" fill="black"/>
</svg>
